:SAMPLES-PER-SECOND 30
:FULLY-SPECIFIED
:DEGREES
859
root  -37.8279 39.7255 2.64256 -5.75693 -37.5689 3.03816
RightUpLeg  7.34802 -17.573 -11.2339
RightLeg  17.2712 -22.1657 -2.90513
RightFoot  -14.4835 0.0434861 5.1609
RightToes  1.45519e-009 0 -3.6325e-017
Spine  3.03288 5.958 13.8863
Spine1  4.93545 9.71855 -14.0165
HEad  32.8422 18.3327 -1.28328
LeftShoulder1  -0.39613 4.61193 -29.5955
LeftArm  35.7792 -17.601 -31.4208
LeftForeArm  165.566 -78.8734 -130.493
LeftHand  -0.0732949 6.41104 -3.71587
RightShoulder  -0.425162 -4.6959 28.657
RightArm  40.3128 13.307 63.8808
RightForeArm  71.338 79.0314 61.1335
RightHand  0.023828 8.06973 -0.161433
LeftUpLeg  -10.8736 -10.8725 -1.80918
LeftLeg  11.3388 -43.0266 -6.04131
LeftFoot  -2.77553 0.921034 -12.0572
LeftToes  -2.53752e-010 -2.07034e-011 -2.70101e-011
860
root  -37.9304 39.7413 2.6748 -5.78143 -37.9517 3.33455
RightUpLeg  7.27119 -17.5027 -11.3657
RightLeg  17.1295 -21.9056 -2.8126
RightFoot  -14.3266 0.0307988 4.91001
RightToes  1.45519e-009 0 -3.6325e-017
Spine  2.56869 6.15443 13.4541
Spine1  5.35146 9.80409 -13.4608
HEad  32.9229 18.0213 -1.54133
LeftShoulder1  -0.372378 4.54242 -29.7025
LeftArm  36.2105 -17.8676 -31.5584
LeftForeArm  167.63 -78.4526 -132.882
LeftHand  -0.145157 7.90618 -4.45946
RightShoulder  -0.344185 -4.48044 28.1011
RightArm  39.9772 13.2456 64.2121
RightForeArm  71.1997 78.959 59.9687
RightHand  0.108744 7.72922 0.587755
LeftUpLeg  -10.7999 -10.4288 -1.92456
LeftLeg  11.1626 -43.0297 -5.90749
LeftFoot  -2.69836 0.911426 -11.8648
LeftToes  -2.53752e-010 -2.07034e-011 -2.70101e-011
861
root  -38.0258 39.75 2.70557 -5.91403 -38.2062 3.49865
RightUpLeg  7.46909 -17.3398 -11.4248
RightLeg  16.9145 -21.8528 -2.74999
RightFoot  -14.3295 0.0351212 5.07047
RightToes  1.45519e-009 0 -3.6325e-017
Spine  2.64173 6.07056 13.5535
Spine1  5.29832 9.79243 -13.7773
HEad  33.1286 18.1523 -1.60743
LeftShoulder1  -0.383897 4.57749 -29.5983
LeftArm  36.1681 -17.8478 -31.5885
LeftForeArm  167.641 -78.2197 -133.848
LeftHand  -0.160254 7.5774 -5.74284
RightShoulder  -0.369821 -4.543 28.4894
RightArm  39.9544 13.2397 64.1665
RightForeArm  66.3461 78.4826 56.612
RightHand  0.0749455 8.34603 0.247647
LeftUpLeg  -10.6213 -10.2645 -1.9767
LeftLeg  11.2134 -42.971 -5.92275
LeftFoot  -2.70011 0.901204 -11.6819
LeftToes  -2.53752e-010 -2.07034e-011 -2.70101e-011
862
root  -38.1197 39.7563 2.74601 -6.03439 -38.3272 3.6632
RightUpLeg  7.70111 -17.186 -11.5042
RightLeg  16.6968 -21.8784 -2.67504
RightFoot  -14.2987 0.036005 5.14945
RightToes  1.45519e-009 0 -3.6325e-017
Spine  2.26874 5.99054 13.2741
Spine1  5.89344 9.67509 -13.3937
HEad  33.0038 18.0589 -1.3892
LeftShoulder1  -0.433726 4.70731 -29.8867
LeftArm  36.1158 -17.9764 -31.4523
LeftForeArm  169.924 -77.9063 -135.59
LeftHand  -0.213393 8.00573 -7.14578
RightShoulder  -0.391101 -4.60499 28.4692
RightArm  39.8807 13.5849 64.0299
RightForeArm  66.7215 78.4564 56.009
RightHand  0.102498 7.91276 0.518258
LeftUpLeg  -10.4612 -10.2093 -2.06142
LeftLeg  11.2685 -42.9352 -5.9597
LeftFoot  -2.69256 0.879544 -11.373
LeftToes  -2.53752e-010 -2.07034e-011 -2.70101e-011
863
root  -38.2159 39.7651 2.78164 -6.13663 -38.796 3.8169
RightUpLeg  7.75487 -16.9582 -11.4718
RightLeg  16.563 -21.6559 -2.72584
RightFoot  -14.2542 0.0351491 5.18286
RightToes  1.45519e-009 0 -3.6325e-017
Spine  2.35525 6.03829 13.1546
Spine1  5.6689 9.67505 -13.2762
HEad  33.3341 18.1341 -1.2999
LeftShoulder1  -0.435819 4.70451 -30.1519
LeftArm  36.2733 -17.8805 -31.303
LeftForeArm  172.359 -77.7862 -136.543
LeftHand  -0.0311568 5.38474 -9.17082
RightShoulder  -0.383932 -4.58882 28.3262
RightArm  39.897 13.449 64.0127
RightForeArm  68.5225 78.5845 56.385
RightHand  0.158331 8.04823 0.988877
LeftUpLeg  -10.3005 -9.95051 -2.05944
LeftLeg  11.3366 -42.7732 -5.98346
LeftFoot  -2.73805 0.863483 -11.1849
LeftToes  -2.53752e-010 -2.07034e-011 -2.70101e-011
864
root  -38.303 39.7707 2.8158 -6.1814 -39.29 4.0782
RightUpLeg  7.59799 -16.8484 -11.5291
RightLeg  16.5586 -21.269 -2.78373
RightFoot  -14.2552 0.0366941 5.24179
RightToes  1.45519e-009 0 -3.6325e-017
Spine  2.07863 6.12898 13.1866
Spine1  5.89345 9.81227 -13.4461
HEad  33.4187 17.7026 -1.07202
LeftShoulder1  -0.371802 4.53109 -30.0309
LeftArm  36.1626 -17.5937 -31.1989
LeftForeArm  175.438 -77.5498 -138.017
LeftHand  0.212078 2.73006 -10.299
RightShoulder  -0.385917 -4.59728 28.2411
RightArm  40.0507 13.6875 64.2434
RightForeArm  69.1193 78.6018 56.1772
RightHand  0.095463 8.65836 0.398978
LeftUpLeg  -10.3073 -9.9843 -2.08687
LeftLeg  11.3731 -42.1999 -5.9803
LeftFoot  -2.64118 0.828883 -10.6918
LeftToes  -2.53752e-010 -2.07034e-011 -2.70101e-011
865
root  -38.3936 39.7683 2.84961 -6.34769 -39.5199 4.29712
RightUpLeg  7.74027 -16.8834 -11.7011
RightLeg  16.5017 -20.9418 -2.73428
RightFoot  -14.3107 0.0414588 5.34397
RightToes  1.45519e-009 0 -3.6325e-017
Spine  1.9137 6.09513 13.2754
Spine1  6.13625 9.86512 -13.7269
HEad  33.5002 18.0373 -1.00319
LeftShoulder1  -0.330374 4.42978 -29.5363
LeftArm  35.9707 -17.4697 -31.6853
LeftForeArm  173.989 -77.6667 -137.315
LeftHand  -0.0440101 5.43357 -9.85277
RightShoulder  -0.393455 -4.61735 28.2877
RightArm  40.1168 13.9724 64.5003
RightForeArm  69.634 78.6074 55.8756
RightHand  0.0788468 9.10981 0.23006
LeftUpLeg  -10.2454 -10.5366 -2.14883
LeftLeg  11.5934 -41.3408 -6.06682
LeftFoot  -2.53858 0.794113 -10.1046
LeftToes  -2.53752e-010 -2.07034e-011 -2.70101e-011
